<mxfile host="app.diagrams.net" agent="Mozilla/5.0 (Windows NT 10.0; Win64; x64) AppleWebKit/537.36 (KHTML, like Gecko) Chrome/132.0.0.0 Safari/537.36" version="26.0.14">
  <diagram name="Page-1" id="c4acf3e9-155e-7222-9cf6-157b1a14988f">
    <mxGraphModel dx="1050" dy="569" grid="1" gridSize="10" guides="1" tooltips="1" connect="1" arrows="1" fold="1" page="1" pageScale="1" pageWidth="850" pageHeight="1100" background="none" math="0" shadow="0">
      <root>
        <mxCell id="0" />
        <mxCell id="1" parent="0" />
        <mxCell id="E6f9A_QqC-4JTL4v3vqP-1" value="SPOTIFY API" style="rounded=0;whiteSpace=wrap;html=1;spacing=2;fontSize=16;fontStyle=1" vertex="1" parent="1">
          <mxGeometry x="330" y="770" width="120" height="60" as="geometry" />
        </mxCell>
        <mxCell id="E6f9A_QqC-4JTL4v3vqP-4" value="&lt;div&gt;&lt;font style=&quot;color: rgb(255, 102, 102);&quot;&gt;&lt;b&gt;JAVA&lt;/b&gt;&lt;/font&gt;&lt;/div&gt;&lt;div&gt;&lt;br&gt;&lt;/div&gt;&lt;div&gt;&lt;font style=&quot;color: rgb(153, 51, 255);&quot;&gt;&lt;b&gt;HTML&lt;/b&gt;&lt;/font&gt;&lt;/div&gt;" style="rounded=0;whiteSpace=wrap;html=1;" vertex="1" parent="1">
          <mxGeometry x="130" y="630" width="100" height="80" as="geometry" />
        </mxCell>
        <mxCell id="E6f9A_QqC-4JTL4v3vqP-5" value="" style="endArrow=classic;html=1;rounded=0;entryX=0.5;entryY=1;entryDx=0;entryDy=0;exitX=0;exitY=0.5;exitDx=0;exitDy=0;" edge="1" parent="1" source="E6f9A_QqC-4JTL4v3vqP-1" target="E6f9A_QqC-4JTL4v3vqP-4">
          <mxGeometry relative="1" as="geometry">
            <mxPoint x="340" y="820" as="sourcePoint" />
            <mxPoint x="500" y="820" as="targetPoint" />
          </mxGeometry>
        </mxCell>
        <mxCell id="E6f9A_QqC-4JTL4v3vqP-6" value="&lt;b&gt;DEVELOPED USING&lt;/b&gt;" style="edgeLabel;resizable=0;html=1;;align=center;verticalAlign=middle;" connectable="0" vertex="1" parent="E6f9A_QqC-4JTL4v3vqP-5">
          <mxGeometry relative="1" as="geometry" />
        </mxCell>
        <mxCell id="E6f9A_QqC-4JTL4v3vqP-12" value="DEVELOPERS" style="swimlane;whiteSpace=wrap;html=1;" vertex="1" parent="1">
          <mxGeometry x="290" y="880" width="200" height="200" as="geometry">
            <mxRectangle x="290" y="880" width="120" height="30" as="alternateBounds" />
          </mxGeometry>
        </mxCell>
        <mxCell id="E6f9A_QqC-4JTL4v3vqP-14" value="DARGMUESLI&lt;div&gt;THELINGMICHAEL&lt;/div&gt;&lt;div&gt;WAGNERCHRISTOPH&lt;/div&gt;&lt;div&gt;C SCHUHMANN&lt;/div&gt;" style="text;html=1;align=center;verticalAlign=middle;whiteSpace=wrap;rounded=0;" vertex="1" parent="E6f9A_QqC-4JTL4v3vqP-12">
          <mxGeometry y="20" width="200" height="180" as="geometry" />
        </mxCell>
      </root>
    </mxGraphModel>
  </diagram>
</mxfile>
